Coordinates
version=1
nRows=19
nColumns=36
inDegrees=yes

Units are S.I. units (second, meters, Newtons, ...)
If the header above contains a line with 'inDegrees', this indicates whether rotational values are in degrees (yes) or radians (no).

endheader
time	pelvis_tilt	pelvis_list	pelvis_rotation	pelvis_tx	pelvis_ty	pelvis_tz	hip_flexion_r	hip_adduction_r	hip_rotation_r	knee_angle_r	knee_angle_r_beta	ankle_angle_r	subtalar_angle_r	mtp_angle_r	hip_flexion_l	hip_adduction_l	hip_rotation_l	knee_angle_l	knee_angle_l_beta	ankle_angle_l	subtalar_angle_l	mtp_angle_l	lumbar_extension	lumbar_bending	lumbar_rotation	arm_flex_r	arm_add_r	arm_rot_r	elbow_flex_r	pro_sup_r	arm_flex_l	arm_add_l	arm_rot_l	elbow_flex_l	pro_sup_l
      3.75000000	     13.26826719	     -7.79386023	     -0.84396474	      0.72156154	      0.93613790	     -0.21069689	     24.68287876	     -0.31669212	     -3.02651862	     23.04541949	      0.40221845	      0.97698726	      5.37439885	     -7.49999987	     -7.52261459	     -3.68116970	      6.46679228	     17.04563879	      0.29750252	     18.83327938	      2.85466175	     -7.49999987	    -21.80237160	      3.61246917	      6.09002370	     66.96040956	     14.25908728	     50.87514419	    119.67071769	     95.31452370	     59.79324320	     20.40697000	     61.75473775	    149.60744229	     61.60757558
      3.76666670	     13.19455136	     -7.82621554	     -0.85039189	      0.72190699	      0.93898582	     -0.21026150	     24.33392348	     -0.13759128	     -2.87666507	     23.05927815	      0.40246033	      1.04670841	      5.11983899	     -7.49999987	     -7.23048878	     -3.62457915	      6.59807035	     17.39907636	      0.30367117	     18.92108499	      2.53240048	     -7.49999987	    -21.67526637	      3.65738479	      6.15230628	     66.85702739	     14.09945655	     51.01147968	    119.63785004	     95.86766638	     59.68804514	     20.46103366	     62.05860533	    149.60783581	     60.85797760
      3.78333330	     13.03318838	     -7.97832547	     -0.91099922	      0.72226098	      0.93887861	     -0.21032513	     24.03804462	      0.13679644	     -2.77457306	     23.27519669	      0.40622882	      1.10426208	      4.64326194	     -7.49999987	     -6.86983541	     -3.65312560	      6.75171180	     17.85875833	      0.31169413	     19.13712480	      2.19574620	     -7.49999987	    -21.48158796	      3.81679092	      6.13772217	     66.67383966	     14.00395331	     51.76622110	    119.56845214	     92.16767418	     59.55977538	     20.41765997	     62.62009931	    149.61081188	     61.18901362
      3.80000000	     12.76635022	     -8.13000952	     -0.99522582	      0.72286079	      0.93843362	     -0.21038268	     23.98463702	      0.49625223	     -2.60467485	     23.80241070	      0.41543044	      1.12167485	      4.06138716	     -7.49999987	     -6.35653132	     -3.71519109	      6.80667310	     18.30010763	      0.31939713	     19.20907759	      1.87951255	     -7.49999987	    -21.20019548	      3.94899940	      6.18635963	     66.32334048	     14.04723723	     51.85207644	    120.24317331	     96.06124417	     59.36881718	     20.47355180	     63.34168932	    149.60737882	     60.73412547
      3.81666670	     12.58838967	     -8.26195225	     -0.98776628	      0.72324338	      0.93541884	     -0.21088861	     23.84163028	      0.76895448	     -2.63492243	     24.24165848	      0.42309676	      1.13719223	      3.66020711	     -7.49999987	     -5.97514465	     -3.77391971	      6.90903549	     18.64713425	      0.32545389	     19.36935094	      1.67724997	     -7.49999987	    -21.03560723	      4.09988670	      6.23686601	     66.53402575	     14.18460830	     51.61611000	    120.19200640	     96.08521111	     59.63738854	     20.87785107	     63.36491297	    149.60288716	     60.72103544
      3.83333330	     12.30354122	     -8.24556182	     -1.06034339	      0.72368389	      0.93533427	     -0.21077166	     23.86336576	      0.93071091	     -2.46618806	     24.62247453	      0.42974325	      0.89252117	      2.91610911	     -7.49999987	     -5.61858182	     -3.67973754	      6.95954179	     18.75708436	      0.32737288	     19.38438054	      1.40563164	     -7.49999987	    -20.77851649	      4.07541507	      6.11448329	     66.58671081	     14.33092857	     51.59710247	    120.09872640	     95.98824746	     59.93820859	     21.17752409	     63.87769357	    149.60078692	     60.08660930
      3.85000000	     12.09588874	     -8.33365112	     -1.06984421	      0.72399636	      0.93841725	     -0.21040562	     23.64438559	      1.17410725	     -2.46602031	     24.77591593	      0.43242131	      0.68740264	      2.40258242	     -7.49999987	     -5.26267542	     -3.72062700	      7.00767468	     18.97480809	      0.33117288	     19.25083626	      1.23976538	     -7.49999987	    -20.66816166	      4.14880622	      5.93382895	     66.35754865	     14.45542625	     51.93360619	    120.14363265	     96.01979760	     59.88563098	     21.24145847	     65.12845304	    149.60373257	     60.32191658
      3.86666670	     11.93664808	     -8.49021614	     -1.05705768	      0.72445075	      0.93808101	     -0.21050904	     23.37547257	      1.46750908	     -2.36827718	     24.62917832	      0.42986025	      0.70898309	      2.04250130	     -7.49999987	     -5.03864785	     -3.82625671	      7.06757404	     19.10211962	      0.33339488	     19.28598400	      1.26206310	     -7.49999987	    -20.52344809	      4.33750475	      5.75053590	     66.17238680	     14.54781928	     52.29608488	    120.04181359	     93.42417950	     59.88492110	     21.27601020	     65.77463487	    149.60630440	     60.58488959
      3.88333330	     11.65361924	     -8.52604064	     -1.03449828	      0.72463057	      0.93787646	     -0.21073159	     23.31181738	      1.58234913	     -2.36124003	     24.42019383	      0.42621279	      0.82353566	      1.82440538	     -7.49999987	     -4.64243695	     -3.80200795	      7.15731920	     19.26116397	      0.33617073	     19.24406844	      1.18277005	     -7.49999987	    -20.24696196	      4.40504822	      5.61898665	     65.90578300	     14.36754238	     52.21192909	    120.23667842	     90.69893359	     59.85813728	     21.38417271	     66.97923501	    149.60453933	     60.86537981
      3.90000000	     11.64828302	     -8.64625515	     -1.11346212	      0.72501123	      0.93752218	     -0.21059408	     22.79804337	      1.85343732	     -2.16558043	     24.10404826	      0.42069501	      0.96132677	      1.46606707	     -7.49999987	     -4.62801010	     -3.88007922	      7.05315096	     19.36678620	      0.33801418	     19.47285221	      1.40858857	     -7.49999987	    -20.19953289	      4.53066516	      5.51957030	     65.98211760	     14.33312660	     52.02817273	    120.08851682	     91.07623412	     60.05108517	     21.36149373	     67.09384989	    149.60591722	     61.15840428
      3.91666670	     11.42471210	     -8.73791104	     -1.16945710	      0.72509582	      0.93733196	     -0.21066510	     22.53413788	      2.06845191	     -1.98823207	     23.78200717	      0.41507433	      1.07512140	      1.14716987	     -7.49999987	     -4.37040874	     -3.91964742	      7.12949848	     19.45612080	      0.33957337	     19.57272978	      1.44353670	     -7.49999987	    -19.87119317	      4.65386348	      5.57372675	     65.77929108	     14.49213612	     51.68120537	    120.07249320	     97.15861483	     60.15827866	     21.54201704	     67.16152203	    149.60425552	     61.10245576
      3.93333330	     11.40604213	     -8.75004216	     -1.20630618	      0.72536567	      0.93700573	     -0.21060398	     22.15093626	      2.18350741	     -1.74314463	     23.48767378	      0.40993724	      1.14365625	      0.88827528	     -7.49999987	     -4.35052964	     -3.88280853	      7.18258122	     19.49084365	      0.34017940	     19.80760564	      1.63854496	     -7.49999987	    -19.76623110	      4.66316059	      5.59327898	     65.81938334	     14.49798623	     52.06515795	    120.03643048	     94.30786695	     59.99764481	     21.61715602	     67.07561694	    149.60352275	     61.25654156
      3.95000000	     11.30265903	     -8.72808016	     -1.18424570	      0.72540872	      0.93708816	     -0.21069920	     21.84610425	      2.27279337	     -1.51224400	     23.12477435	      0.40360345	      1.26163714	      0.60709803	     -7.49999987	     -4.16760974	     -3.81398639	      7.29888630	     19.61937782	      0.34242274	     19.89227235	      1.70082068	     -7.49999987	    -19.61324204	      4.62741742	      5.53723003	     65.69952043	     14.40360997	     51.52192599	    120.07764999	     97.25731726	     59.98019017	     21.72866446	     67.54161626	    149.60301815	     61.09785399
      3.96666670	     11.23863321	     -8.70122373	     -1.23978852	      0.72573414	      0.93676644	     -0.21057886	     21.65813859	      2.34805837	     -1.31805814	     22.88698775	      0.39945329	      1.41249140	      0.39859593	     -7.49999987	     -4.05599660	     -3.73132434	      7.36212827	     19.67905560	      0.34346431	     19.95148643	      1.81351546	     -7.49999987	    -19.49180090	      4.59955873	      5.59894586	     65.71770773	     14.26285884	     51.34765234	    120.05030933	     97.21520416	     60.10820586	     21.84685395	     67.60355770	    149.60027772	     61.17547955
      3.98333330	     11.30465743	     -8.62109190	     -1.25192436	      0.72562115	      0.93686988	     -0.21050077	     21.32280635	      2.35437194	     -1.14589796	     22.48051847	      0.39235906	      1.47585234	      0.24538012	     -7.49999987	     -4.19012794	     -3.60019426	      7.43675456	     19.54662534	      0.34115297	     19.90398275	      1.94278695	     -7.49999987	    -19.46650759	      4.52873086	      5.70315044	     65.83443700	     14.05948681	     51.31520729	    119.97461979	     95.30066424	     60.20184794	     21.98949855	     67.42012608	    149.59894411	     61.31015506
      4.00000000	     11.25702009	     -8.56275615	     -1.23341392	      0.72590901	      0.93661661	     -0.21042768	     21.14231571	      2.38237056	     -1.10642363	     22.21473975	      0.38772035	      1.55320339	      0.13378885	     -7.49999987	     -4.10452567	     -3.47521579	      7.66442591	     19.59955575	      0.34207678	     19.81032623	      1.79590108	     -7.49999987	    -19.33117718	      4.49463785	      5.73598123	     65.78864940	     13.97853593	     51.07770822	    119.89854277	     97.46972976	     60.23261309	     22.10299501	     67.59787844	    149.59753988	     61.44472144
      4.01666670	     11.27422379	     -8.56219973	     -1.24312075	      0.72581771	      0.93675018	     -0.21044770	     21.01254240	      2.45077833	     -1.13982646	     22.09735638	      0.38567162	      1.66600298	      0.06383556	     -7.49999987	     -3.99055837	     -3.41950292	      7.77872802	     19.82969649	      0.34609349	     19.86288516	      1.79928517	     -7.49999987	    -19.33567477	      4.50128287	      5.71057903	     65.78070736	     13.89012224	     51.46331492	    119.86772054	     94.41889886	     60.22198526	     22.03306539	     68.57671999	    149.59852300	     61.83208797
      4.03333330	     11.32033074	     -8.53161481	     -1.37566342	      0.72601421	      0.93671729	     -0.21024116	     20.94939792	      2.52636893	     -1.02191891	     22.07839862	      0.38534075	      1.78169800	     -0.12328412	     -7.49999987	     -3.91750424	     -3.32588172	      7.72160138	     20.07842168	      0.35043457	     19.93332624	      1.88684698	     -7.49999987	    -19.45696376	      4.41033691	      6.08858409	     65.88285504	     13.21136584	     51.42408765	    120.18079775	     92.01461064	     60.28399773	     22.24844863	     68.70906313	    149.59752461	     62.07058308
      4.05000000	     11.16335948	     -8.44320715	     -1.47270337	      0.72610929	      0.93686680	     -0.21011194	     21.13004312	      2.51276472	     -0.99589955	     22.12041361	      0.38607405	      1.82514205	     -0.27630877	     -7.49999987	     -3.62324528	     -3.16787472	      7.76397998	     20.36138302	      0.35537317	     20.00640202	      1.83228366	     -7.49999987	    -19.41224916	      4.27377099	      6.18154026	     65.72577613	     12.97263440	     50.97127254	    120.44412938	     96.51763196	     60.36489001	     22.43660417	     69.55950721	    149.59741357	     61.98552089
